<mxfile host="app.diagrams.net" agent="Mozilla/5.0 (X11; Ubuntu; Linux x86_64; rv:137.0) Gecko/20100101 Firefox/137.0" version="26.2.12">
  <diagram name="Page-1" id="fSZ7YO3sjbDht0UX-MQG">
    <mxGraphModel dx="1597" dy="763" grid="1" gridSize="10" guides="1" tooltips="1" connect="1" arrows="1" fold="1" page="1" pageScale="1" pageWidth="850" pageHeight="1100" math="0" shadow="0">
      <root>
        <mxCell id="0" />
        <mxCell id="1" parent="0" />
        <mxCell id="glnDWJ76Rt8zFUUuRBUN-6" style="edgeStyle=orthogonalEdgeStyle;rounded=0;orthogonalLoop=1;jettySize=auto;html=1;exitX=1;exitY=0.5;exitDx=0;exitDy=0;entryX=0;entryY=0.5;entryDx=0;entryDy=0;" edge="1" parent="1" source="glnDWJ76Rt8zFUUuRBUN-1" target="glnDWJ76Rt8zFUUuRBUN-2">
          <mxGeometry relative="1" as="geometry" />
        </mxCell>
        <mxCell id="glnDWJ76Rt8zFUUuRBUN-1" value="seed URLs" style="rounded=1;whiteSpace=wrap;html=1;" vertex="1" parent="1">
          <mxGeometry x="40" y="250" width="120" height="60" as="geometry" />
        </mxCell>
        <mxCell id="glnDWJ76Rt8zFUUuRBUN-7" style="edgeStyle=orthogonalEdgeStyle;rounded=0;orthogonalLoop=1;jettySize=auto;html=1;exitX=1;exitY=0.5;exitDx=0;exitDy=0;entryX=0;entryY=0.5;entryDx=0;entryDy=0;" edge="1" parent="1" source="glnDWJ76Rt8zFUUuRBUN-2" target="glnDWJ76Rt8zFUUuRBUN-3">
          <mxGeometry relative="1" as="geometry" />
        </mxCell>
        <mxCell id="glnDWJ76Rt8zFUUuRBUN-2" value="URL Frontier" style="rounded=1;whiteSpace=wrap;html=1;" vertex="1" parent="1">
          <mxGeometry x="240" y="250" width="120" height="60" as="geometry" />
        </mxCell>
        <mxCell id="glnDWJ76Rt8zFUUuRBUN-8" style="edgeStyle=orthogonalEdgeStyle;rounded=0;orthogonalLoop=1;jettySize=auto;html=1;exitX=1;exitY=0.5;exitDx=0;exitDy=0;entryX=0;entryY=0.5;entryDx=0;entryDy=0;" edge="1" parent="1" source="glnDWJ76Rt8zFUUuRBUN-3" target="glnDWJ76Rt8zFUUuRBUN-4">
          <mxGeometry relative="1" as="geometry" />
        </mxCell>
        <mxCell id="glnDWJ76Rt8zFUUuRBUN-11" style="edgeStyle=orthogonalEdgeStyle;rounded=0;orthogonalLoop=1;jettySize=auto;html=1;exitX=0.5;exitY=0;exitDx=0;exitDy=0;entryX=0.5;entryY=1;entryDx=0;entryDy=0;" edge="1" parent="1" source="glnDWJ76Rt8zFUUuRBUN-3" target="glnDWJ76Rt8zFUUuRBUN-10">
          <mxGeometry relative="1" as="geometry" />
        </mxCell>
        <mxCell id="glnDWJ76Rt8zFUUuRBUN-3" value="HTML Downloader" style="rounded=1;whiteSpace=wrap;html=1;" vertex="1" parent="1">
          <mxGeometry x="440" y="250" width="120" height="60" as="geometry" />
        </mxCell>
        <mxCell id="glnDWJ76Rt8zFUUuRBUN-9" style="edgeStyle=orthogonalEdgeStyle;rounded=0;orthogonalLoop=1;jettySize=auto;html=1;exitX=1;exitY=0.5;exitDx=0;exitDy=0;entryX=0;entryY=0.5;entryDx=0;entryDy=0;" edge="1" parent="1" source="glnDWJ76Rt8zFUUuRBUN-4" target="glnDWJ76Rt8zFUUuRBUN-5">
          <mxGeometry relative="1" as="geometry" />
        </mxCell>
        <mxCell id="glnDWJ76Rt8zFUUuRBUN-4" value="Content Parser" style="rounded=1;whiteSpace=wrap;html=1;" vertex="1" parent="1">
          <mxGeometry x="640" y="250" width="120" height="60" as="geometry" />
        </mxCell>
        <mxCell id="glnDWJ76Rt8zFUUuRBUN-17" value="" style="edgeStyle=orthogonalEdgeStyle;rounded=0;orthogonalLoop=1;jettySize=auto;html=1;" edge="1" parent="1" source="glnDWJ76Rt8zFUUuRBUN-5" target="glnDWJ76Rt8zFUUuRBUN-14">
          <mxGeometry relative="1" as="geometry" />
        </mxCell>
        <mxCell id="glnDWJ76Rt8zFUUuRBUN-5" value="Content Seen?" style="rounded=1;whiteSpace=wrap;html=1;" vertex="1" parent="1">
          <mxGeometry x="840" y="250" width="120" height="60" as="geometry" />
        </mxCell>
        <mxCell id="glnDWJ76Rt8zFUUuRBUN-10" value="DNS Resolver" style="rounded=1;whiteSpace=wrap;html=1;" vertex="1" parent="1">
          <mxGeometry x="440" y="140" width="120" height="60" as="geometry" />
        </mxCell>
        <mxCell id="glnDWJ76Rt8zFUUuRBUN-12" value="Content Storage" style="shape=cylinder3;whiteSpace=wrap;html=1;boundedLbl=1;backgroundOutline=1;size=15;" vertex="1" parent="1">
          <mxGeometry x="870" y="120" width="60" height="80" as="geometry" />
        </mxCell>
        <mxCell id="glnDWJ76Rt8zFUUuRBUN-13" value="" style="endArrow=classic;startArrow=classic;html=1;rounded=0;entryX=0.5;entryY=1;entryDx=0;entryDy=0;entryPerimeter=0;" edge="1" parent="1" source="glnDWJ76Rt8zFUUuRBUN-5" target="glnDWJ76Rt8zFUUuRBUN-12">
          <mxGeometry width="50" height="50" relative="1" as="geometry">
            <mxPoint x="400" y="420" as="sourcePoint" />
            <mxPoint x="450" y="370" as="targetPoint" />
          </mxGeometry>
        </mxCell>
        <mxCell id="glnDWJ76Rt8zFUUuRBUN-18" value="" style="edgeStyle=orthogonalEdgeStyle;rounded=0;orthogonalLoop=1;jettySize=auto;html=1;" edge="1" parent="1" source="glnDWJ76Rt8zFUUuRBUN-14" target="glnDWJ76Rt8zFUUuRBUN-15">
          <mxGeometry relative="1" as="geometry" />
        </mxCell>
        <mxCell id="glnDWJ76Rt8zFUUuRBUN-14" value="Link Extractor" style="rounded=1;whiteSpace=wrap;html=1;" vertex="1" parent="1">
          <mxGeometry x="840" y="360" width="120" height="60" as="geometry" />
        </mxCell>
        <mxCell id="glnDWJ76Rt8zFUUuRBUN-19" value="" style="edgeStyle=orthogonalEdgeStyle;rounded=0;orthogonalLoop=1;jettySize=auto;html=1;" edge="1" parent="1" source="glnDWJ76Rt8zFUUuRBUN-15" target="glnDWJ76Rt8zFUUuRBUN-16">
          <mxGeometry relative="1" as="geometry" />
        </mxCell>
        <mxCell id="glnDWJ76Rt8zFUUuRBUN-15" value="URL Filter" style="rounded=1;whiteSpace=wrap;html=1;" vertex="1" parent="1">
          <mxGeometry x="840" y="480" width="120" height="60" as="geometry" />
        </mxCell>
        <mxCell id="glnDWJ76Rt8zFUUuRBUN-20" style="edgeStyle=orthogonalEdgeStyle;rounded=0;orthogonalLoop=1;jettySize=auto;html=1;exitX=0;exitY=0.5;exitDx=0;exitDy=0;entryX=0.5;entryY=1;entryDx=0;entryDy=0;" edge="1" parent="1" source="glnDWJ76Rt8zFUUuRBUN-16" target="glnDWJ76Rt8zFUUuRBUN-2">
          <mxGeometry relative="1" as="geometry" />
        </mxCell>
        <mxCell id="glnDWJ76Rt8zFUUuRBUN-16" value="URL Seen?" style="rounded=1;whiteSpace=wrap;html=1;" vertex="1" parent="1">
          <mxGeometry x="840" y="600" width="120" height="60" as="geometry" />
        </mxCell>
        <mxCell id="glnDWJ76Rt8zFUUuRBUN-21" value="URL Storage" style="shape=cylinder3;whiteSpace=wrap;html=1;boundedLbl=1;backgroundOutline=1;size=15;" vertex="1" parent="1">
          <mxGeometry x="870" y="720" width="60" height="80" as="geometry" />
        </mxCell>
        <mxCell id="glnDWJ76Rt8zFUUuRBUN-22" value="" style="endArrow=classic;startArrow=classic;html=1;rounded=0;entryX=0.5;entryY=0;entryDx=0;entryDy=0;entryPerimeter=0;" edge="1" parent="1" source="glnDWJ76Rt8zFUUuRBUN-16" target="glnDWJ76Rt8zFUUuRBUN-21">
          <mxGeometry width="50" height="50" relative="1" as="geometry">
            <mxPoint x="400" y="450" as="sourcePoint" />
            <mxPoint x="450" y="400" as="targetPoint" />
          </mxGeometry>
        </mxCell>
      </root>
    </mxGraphModel>
  </diagram>
</mxfile>
